<svg id="SvgjsSvg1011" width="288" height="288" xmlns="http://www.w3.org/2000/svg" version="1.1" xmlns:xlink="http://www.w3.org/1999/xlink" xmlns:svgjs="http://svgjs.com/svgjs"><defs id="SvgjsDefs1012"></defs><g id="SvgjsG1013"><svg xmlns="http://www.w3.org/2000/svg" enable-background="new 0 0 32 32" viewBox="0 0 32 32" width="288" height="288"><path fill="#ffc1cc" d="M9,17.006c-3.018,0.721-5,1.929-5,3.299c0,2.209,5.149,4,11.5,4s11.5-1.791,11.5-4      c0-1.37-1.982-2.578-5-3.299" class="colora6daf6 svgShape"></path><path fill="#ffc1cc" d="M10,18.781c-1.833,0.367-3,0.913-3,1.523c0,1.105,3.806,2,8.5,2s8.5-0.895,8.5-2      c0-0.611-1.167-1.156-3-1.523" class="color80c8ef svgShape"></path><path fill="#a7c7e7" d="M22,17.006h-5.982l-6.673,6.673c1.781,0.394,3.888,0.625,6.155,0.625c6.351,0,11.5-1.791,11.5-4      C27,18.934,25.018,17.727,22,17.006z" class="colorc9e7f9 svgShape"></path><path fill="#ffc1cc" d="M21,18.781h-7.255l-3.154,3.154c1.387,0.232,3.078,0.369,4.909,0.369c4.694,0,8.5-0.895,8.5-2      C24,19.694,22.833,19.148,21,18.781z" class="colora6daf6 svgShape"></path><path fill="#a7c7e7" d="M15.5,7.304c2.187,4.021,4.561,5.92,4.561,8.439s-2.042,4.561-4.561,4.561s-4.561-2.042-4.561-4.561      S13.312,11.325,15.5,7.304" class="colorc9e7f9 svgShape"></path><path fill="#ffc1cc" d="M15.5,7.304c-2.188,4.021-4.561,5.92-4.561,8.439c0,0.892,0.266,1.717,0.708,2.42l6.595-6.595      C17.431,10.395,16.453,9.056,15.5,7.304z" class="colora6daf6 svgShape"></path><path fill="#333333" d="M15.5,20.804c-2.79,0-5.061-2.271-5.061-5.061c0-1.737,0.997-3.164,2.259-4.971      c0.731-1.046,1.561-2.232,2.362-3.707c0.176-0.322,0.703-0.322,0.879,0c0.802,1.475,1.631,2.661,2.362,3.707      c1.262,1.807,2.259,3.234,2.259,4.971C20.561,18.533,18.29,20.804,15.5,20.804z M15.5,8.32      c-0.685,1.169-1.367,2.145-1.981,3.025c-1.207,1.728-2.079,2.976-2.079,4.398c0,2.239,1.821,4.061,4.061,4.061      s4.061-1.821,4.061-4.061c0-1.422-0.872-2.67-2.079-4.398C16.867,10.465,16.185,9.489,15.5,8.32z" class="color12a8e1 svgShape"></path><path fill="#333333" d="M15.5,22.804c-3.343,0-9-0.526-9-2.5c0-0.897,1.113-1.556,3.402-2.013c0.267-0.057,0.533,0.12,0.588,0.393      c0.054,0.271-0.121,0.534-0.393,0.588c-2.07,0.414-2.576,0.922-2.598,1.035c0.093,0.505,3.001,1.497,8,1.497      s7.907-0.992,8-1.502c-0.021-0.108-0.527-0.616-2.598-1.03c-0.271-0.054-0.446-0.317-0.393-0.588      c0.055-0.271,0.319-0.448,0.588-0.393c2.289,0.457,3.402,1.115,3.402,2.013C24.5,22.277,18.843,22.804,15.5,22.804z" class="color12a8e1 svgShape"></path><path fill="#333333" d="M15.5,24.804c-5.817,0-12-1.577-12-4.5c0-1.588,1.962-2.967,5.384-3.784      c0.27-0.066,0.538,0.102,0.603,0.37s-0.102,0.538-0.37,0.603C6.312,18.162,4.5,19.266,4.5,20.304c0,1.655,4.518,3.5,11,3.5      s11-1.845,11-3.5c0-1.038-1.812-2.142-4.616-2.812c-0.269-0.064-0.435-0.334-0.37-0.603c0.063-0.269,0.329-0.437,0.603-0.37      c3.422,0.817,5.384,2.196,5.384,3.784C27.5,23.227,21.317,24.804,15.5,24.804z" class="color12a8e1 svgShape"></path></svg></g></svg>